<?xml version="1.0" encoding="utf-8"?>
<!-- Generator: Adobe Illustrator 19.0.0, SVG Export Plug-In . SVG Version: 6.00 Build 0)  -->
<svg version="1.1" id="Layer_1" xmlns="http://www.w3.org/2000/svg" xmlns:xlink="http://www.w3.org/1999/xlink" x="0px" y="0px"
	 viewBox="0 0 3000 1320.771" style="enable-background:new 0 0 3000 1320.771;" xml:space="preserve">
<style type="text/css">
	.st0{opacity:0.7;}
	.st1{fill-rule:evenodd;clip-rule:evenodd;fill:#FFFFFF;}
</style>
<g>
	<g class="st0">
		<g>
			<path class="st1" d="M1573.015,526.346c0,131.208-42.45,234.823-127.261,310.756c-84.812,75.935-193.36,113.944-325.558,113.944
				c-132.195,0-239.117-37.19-321.114-110.986c-85.652-77.083-128.744-181.523-128.744-313.715
				c0-130.225,41.958-233.838,125.782-310.758c83.827-76.917,191.881-115.421,324.075-115.421
				c133.182,0,241.976,38.255,326.296,114.682C1530.811,291.272,1573.015,395.136,1573.015,526.346L1573.015,526.346z
				 M1254.858,526.346c0-76.952-13.427-132.165-39.954-165.738c-21.752-27.531-53.274-41.434-94.707-41.434
				c-52.286,0-88.851,22.702-109.504,68.07c-14.802,32.509-22.199,78.924-22.199,139.102c0,76.95,12.656,132.377,38.475,165.733
				c21.476,27.75,52.781,41.437,93.228,41.437c50.312,0,86.906-23.183,109.506-69.55
				C1246.506,629.496,1254.858,583.563,1254.858,526.346L1254.858,526.346z M2517.963,526.346
				c0,131.208-42.434,234.805-127.261,310.756c-84.831,75.948-193.36,113.944-325.558,113.944
				c-132.195,0-239.1-37.172-321.114-110.986c-85.668-77.097-128.744-181.523-128.744-313.715
				c0-130.225,41.939-233.822,125.785-310.758c83.84-76.936,191.878-115.421,324.072-115.421
				c133.181,0,241.96,38.239,326.296,114.682C2475.774,291.291,2517.963,395.136,2517.963,526.346L2517.963,526.346z
				 M2199.805,526.346c0-76.952-13.411-132.146-39.954-165.738c-21.77-27.544-53.274-41.434-94.707-41.434
				c-52.287,0-88.833,22.686-109.503,68.07c-14.815,32.528-22.199,78.924-22.199,139.102c0,76.95,12.643,132.358,38.477,165.733
				c21.492,27.766,52.779,41.437,93.225,41.437c50.315,0,86.89-23.168,109.506-69.55
				C2191.469,629.478,2199.805,583.563,2199.805,526.346L2199.805,526.346z"/>
			<polygon id="XMLID_15_" class="st1" points="2908.883,0 2908.883,741.146 3000,934.941 2657.509,934.941 2566.391,741.146 
				2566.391,0 2908.883,0 			"/>
			<path id="XMLID_14_" class="st1" d="M699.18,1320.771L544.918,989.844V656.837c29.502,0,59.002,0,88.501,0
				c-23.865-90.989-23.082-175.027-1.086-263.421h-87.415L420.535,178.317H0l122.259,215.099v596.428l155.257,330.927H699.18
				L699.18,1320.771z"/>
		</g>
	</g>
</g>
</svg>
